<?xml version="1.0" encoding="UTF-8"?>
<svg xmlns="http://www.w3.org/2000/svg" width="780" height="515" viewBox="0 0 780 515" role="img" aria-labelledby="title desc">
<title id="title">Operating-environment prediction probe</title>
<desc id="desc">Generated deterministically from locked SmartValve experiment metrics.</desc>
<rect width="100%" height="100%" fill="#ffffff"/>
<g font-family="Arial, Helvetica, sans-serif">
<text x="390.0" y="34.0" text-anchor="middle" font-size="20" font-weight="700" fill="#0f172a">Operating load remains decodable from both representations</text>
<text x="390.0" y="56.0" text-anchor="middle" font-size="13" font-weight="400" fill="#475569">Repetition-disjoint ExtraTrees load probe; mean ± sample SD</text>
<line x1="100" y1="420" x2="730" y2="420" stroke="#334155"/>
<line x1="100" y1="90" x2="100" y2="420" stroke="#334155"/>
<line x1="100" y1="420.0" x2="730" y2="420.0" stroke="#e2e8f0"/>
<text x="90.0" y="425.0" text-anchor="end" font-size="12" font-weight="400" fill="#0f172a">0.80</text>
<line x1="100" y1="337.5000000000001" x2="730" y2="337.5000000000001" stroke="#e2e8f0"/>
<text x="90.0" y="342.5" text-anchor="end" font-size="12" font-weight="400" fill="#0f172a">0.85</text>
<line x1="100" y1="255.00000000000003" x2="730" y2="255.00000000000003" stroke="#e2e8f0"/>
<text x="90.0" y="260.0" text-anchor="end" font-size="12" font-weight="400" fill="#0f172a">0.90</text>
<line x1="100" y1="172.50000000000014" x2="730" y2="172.50000000000014" stroke="#e2e8f0"/>
<text x="90.0" y="177.5" text-anchor="end" font-size="12" font-weight="400" fill="#0f172a">0.95</text>
<line x1="100" y1="90.00000000000006" x2="730" y2="90.00000000000006" stroke="#e2e8f0"/>
<text x="90.0" y="95.0" text-anchor="end" font-size="12" font-weight="400" fill="#0f172a">1.00</text>
<text x="38.0" y="255.0" text-anchor="middle" font-size="14" font-weight="600" fill="#0f172a" transform="rotate(-90 38 255)">Load macro F1</text>
<rect x="200" y="90.00000000000006" width="140" height="329.99999999999994" fill="#2563eb" opacity="0.88"/>
<line x1="270" y1="90.00000000000006" x2="270" y2="90.00000000000006" stroke="#0f172a" stroke-width="3"/>
<line x1="260" y1="90.00000000000006" x2="280" y2="90.00000000000006" stroke="#0f172a"/>
<line x1="260" y1="90.00000000000006" x2="280" y2="90.00000000000006" stroke="#0f172a"/>
<text x="270.0" y="78.0" text-anchor="middle" font-size="13" font-weight="700" fill="#0f172a">1.0000 ± 0.0000</text>
<text x="270.0" y="448.0" text-anchor="middle" font-size="14" font-weight="600" fill="#0f172a">Raw P0</text>
<rect x="470" y="249.38742609707506" width="140" height="170.61257390292494" fill="#059669" opacity="0.88"/>
<line x1="540" y1="257.6574575790503" x2="540" y2="241.1173946150999" stroke="#0f172a" stroke-width="3"/>
<line x1="530" y1="257.6574575790503" x2="550" y2="257.6574575790503" stroke="#0f172a"/>
<line x1="530" y1="241.1173946150999" x2="550" y2="241.1173946150999" stroke="#0f172a"/>
<text x="540.0" y="237.4" text-anchor="middle" font-size="13" font-weight="700" fill="#0f172a">0.9034 ± 0.0050</text>
<text x="540.0" y="448.0" text-anchor="middle" font-size="14" font-weight="600" fill="#0f172a">Matched-reference P2</text>
<text x="390.0" y="490.0" text-anchor="middle" font-size="12" font-weight="400" fill="#475569">Decodability is a nuisance-retention diagnostic, not proof of causal classifier use.</text>
</g>
</svg>
